<svg xmlns="http://www.w3.org/2000/svg" xmlns:xlink="http://www.w3.org/1999/xlink" viewBox="0 0 435.4 83.7"><defs><style>.cls-1{fill:url(#Degradado_sin_nombre_35);}.cls-2{fill:#fff;}</style><linearGradient id="Degradado_sin_nombre_35" x1="3.55" y1="6.04" x2="52.39" y2="54.88" gradientUnits="userSpaceOnUse"><stop offset="0" stop-color="#0239c1"/><stop offset="1" stop-color="#f0f"/></linearGradient></defs><g id="Capa_2" data-name="Capa 2"><g id="Capa_1-2" data-name="Capa 1"><path class="cls-1" d="M30.84,0C13.81,0,0,13.52,0,30.2c0,14.23,22.8,40.71,29.41,48a2.46,2.46,0,0,0,3.62,0c6.61-7.28,28.65-33.76,28.65-48C61.68,13.52,47.87,0,30.84,0ZM45.66,33.65,25.39,46.38a1.28,1.28,0,0,1-1.29,0,1.3,1.3,0,0,1-.65-1.13l.13-25.67a1.29,1.29,0,0,1,.67-1.12,1.25,1.25,0,0,1,1.29,0l8.17,5.25h0l12,7.68a1.31,1.31,0,0,1,.59,1.1A1.28,1.28,0,0,1,45.66,33.65Z"/><path class="cls-2" d="M100.41,52.18a8,8,0,0,0-1.77-5.46,17.7,17.7,0,0,0-6.33-3.91q-8.9-3.14-13.38-7.1T74.44,24.59A14.63,14.63,0,0,1,79.56,13q5.13-4.47,13.07-4.47,8.41,0,13.54,4.76t5,12.79l-.08.24H100.17q0-4.48-2-6.81a7.17,7.17,0,0,0-5.74-2.32,6.15,6.15,0,0,0-5,2.12,7.91,7.91,0,0,0-1.79,5.3,6.35,6.35,0,0,0,2,4.84,27.22,27.22,0,0,0,7,4.17q8.39,2.78,12.69,7t4.3,11.43q0,7.42-5,11.67T93.18,68a22.08,22.08,0,0,1-14.05-4.58q-5.84-4.59-5.64-14l.08-.24H84.49q0,5.44,2.2,7.82t6.49,2.39a6.94,6.94,0,0,0,5.42-2A7.51,7.51,0,0,0,100.41,52.18Z"/><path class="cls-2" d="M131.26,13.55V24.23h5.83v8h-5.83V54.09a7.14,7.14,0,0,0,.79,3.89,2.51,2.51,0,0,0,2.18,1.15,6.77,6.77,0,0,0,1.31-.1,11.87,11.87,0,0,0,1.27-.34l.88,8.26a19.41,19.41,0,0,1-3,.81,18.06,18.06,0,0,1-3.27.26q-5.49,0-8.4-3.33t-2.92-10.52v-22h-5.2v-8h5.2V13.55Z"/><path class="cls-2" d="M163.37,33.92l-3.81-.12a4.85,4.85,0,0,0-3.11,1,6.24,6.24,0,0,0-1.93,2.78V67.19H143.36v-43h10.45l.43,6.08a13.23,13.23,0,0,1,3.16-5.07,6.29,6.29,0,0,1,4.43-1.8,6,6,0,0,1,1.38.14q.64.14,1.32.33Z"/><path class="cls-2" d="M184.34,68q-8.51,0-13.18-5.87T166.47,47V45.39q0-9.72,4.51-15.84t12.68-6.11q7.59,0,11.63,5.2t4.05,14.13v6.12H177.67a15,15,0,0,0,2.16,7.58,6.52,6.52,0,0,0,5.82,2.82,17.1,17.1,0,0,0,5.57-.78,22.36,22.36,0,0,0,4.83-2.44l2.9,7a18.61,18.61,0,0,1-6.22,3.53A24,24,0,0,1,184.34,68Zm-.68-35.81a4.5,4.5,0,0,0-4.19,2.48,17.15,17.15,0,0,0-1.72,6.81h10.64v-1a13.84,13.84,0,0,0-1.1-6.11A3.75,3.75,0,0,0,183.66,32.21Z"/><path class="cls-2" d="M226.54,67.19a17.63,17.63,0,0,1-1-3.1,25.61,25.61,0,0,1-.62-3.41A15.2,15.2,0,0,1,221.12,66a8.3,8.3,0,0,1-5.7,2.06q-5.88,0-9-3.43t-3.16-9.43q0-6.27,4.15-9.75t12.41-3.47h4.88V38.37a8.7,8.7,0,0,0-1.19-4.95A4,4,0,0,0,220,31.7a3.72,3.72,0,0,0-3.14,1.39,6.4,6.4,0,0,0-1.07,4l-10.8,0-.08-.24A11.43,11.43,0,0,1,209,27.33q4.41-3.9,11.63-3.89,6.79,0,11,3.89t4.21,11.11V56.07a36,36,0,0,0,.43,5.72,33.36,33.36,0,0,0,1.36,5.4Zm-8.22-7.47a6.22,6.22,0,0,0,4-1.37A6.84,6.84,0,0,0,224.67,55V48.29h-4.88a4.68,4.68,0,0,0-4.11,1.83,7.76,7.76,0,0,0-1.29,4.6,5.74,5.74,0,0,0,1.07,3.61A3.43,3.43,0,0,0,218.32,59.72Z"/><path class="cls-2" d="M253.53,24.23l.44,5.52a13.07,13.07,0,0,1,4.39-4.66,11.18,11.18,0,0,1,6.05-1.65,9.8,9.8,0,0,1,5.84,1.76A11,11,0,0,1,274,30.58a14,14,0,0,1,4.39-5.26,10.62,10.62,0,0,1,6.25-1.88A9.89,9.89,0,0,1,293.2,28q3.14,4.53,3.13,13.86V67.19H285.14V41.82c0-3.63-.39-6.13-1.15-7.5a3.79,3.79,0,0,0-3.54-2.07,5,5,0,0,0-3.09,1,7.61,7.61,0,0,0-2.23,2.8c0,.66.06,1.23.1,1.71s.06.95.06,1.43v28H264.13V41.82q0-5.35-1.15-7.46a3.79,3.79,0,0,0-3.57-2.11,5.32,5.32,0,0,0-2.92.82,7,7,0,0,0-2.2,2.28V67.19h-11.2v-43Z"/><path class="cls-2" d="M329.64,52.26h.24L340.72,9.38h14.65V67.19H344.25V30.78l-.24,0L333.57,67.19h-7.5L315.71,31l-.24,0V67.19H304.31V9.38h14.57Z"/><path class="cls-2" d="M384.79,67.19a18.5,18.5,0,0,1-1.06-3.1,27.31,27.31,0,0,1-.61-3.41A15.2,15.2,0,0,1,379.37,66a8.3,8.3,0,0,1-5.7,2.06q-5.88,0-9-3.43t-3.16-9.43q0-6.27,4.15-9.75T378,41.94h4.88V38.37a8.7,8.7,0,0,0-1.19-4.95,4,4,0,0,0-3.53-1.72,3.71,3.71,0,0,0-3.14,1.39,6.4,6.4,0,0,0-1.07,4l-10.8,0-.08-.24a11.43,11.43,0,0,1,4.17-9.45q4.41-3.9,11.63-3.89,6.79,0,11,3.89t4.21,11.11V56.07a36,36,0,0,0,.43,5.72,33.32,33.32,0,0,0,1.35,5.4Zm-8.22-7.47a6.24,6.24,0,0,0,4-1.37A6.84,6.84,0,0,0,382.92,55V48.29H378a4.68,4.68,0,0,0-4.11,1.83,7.76,7.76,0,0,0-1.29,4.6,5.74,5.74,0,0,0,1.07,3.61A3.42,3.42,0,0,0,376.57,59.72Z"/><path class="cls-2" d="M435.4,46.78q0,9.61-3.79,15.43A12,12,0,0,1,421,68a10.34,10.34,0,0,1-4.84-1.09,10.53,10.53,0,0,1-3.65-3.2v20H401.34V24.23h10.24l.48,4.41a12,12,0,0,1,3.77-3.85,9.47,9.47,0,0,1,5.08-1.35,11.89,11.89,0,0,1,10.7,6.19q3.79,6.19,3.79,16.32ZM424.21,46A27.14,27.14,0,0,0,422.7,36q-1.51-3.77-4.68-3.77a5.68,5.68,0,0,0-3.3,1,6.77,6.77,0,0,0-2.22,2.72V56.19a5.73,5.73,0,0,0,2.22,2.3,6.63,6.63,0,0,0,3.34.8,4.88,4.88,0,0,0,4.7-3.32,23.43,23.43,0,0,0,1.45-9.19Z"/></g></g></svg>