<svg xmlns="http://www.w3.org/2000/svg" xmlns:xlink="http://www.w3.org/1999/xlink" viewBox="0 0 444.39 81.23"><defs><style>.cls-1{fill:url(#Degradado_sin_nombre_35);}.cls-2{fill:#fff;}</style><linearGradient id="Degradado_sin_nombre_35" x1="3.45" y1="5.87" x2="50.93" y2="53.35" gradientUnits="userSpaceOnUse"><stop offset="0" stop-color="#0239c1"/><stop offset="1" stop-color="#f0f"/></linearGradient></defs><g id="Capa_2" data-name="Capa 2"><g id="Capa_1-2" data-name="Capa 1"><path class="cls-1" d="M30,0C13.42,0,0,13.14,0,29.36,0,43.19,22.17,68.94,28.59,76a2.39,2.39,0,0,0,3.52,0C38.53,68.94,60,43.19,60,29.36,60,13.14,46.54,0,30,0Z"/><path class="cls-2" d="M44.39,32.71,24.68,45.09a1.25,1.25,0,0,1-.65.18,1.17,1.17,0,0,1-.6-.16A1.24,1.24,0,0,1,22.8,44l.13-24.94a1.24,1.24,0,0,1,.64-1.1,1.22,1.22,0,0,1,1.25,0l8,5.11h0L44.4,30.59A1.25,1.25,0,0,1,45,31.65,1.23,1.23,0,0,1,44.39,32.71Z"/><path class="cls-2" d="M109.4,49.7a8,8,0,0,0-1.77-5.46,17.7,17.7,0,0,0-6.33-3.91q-8.89-3.13-13.38-7.1T83.43,22.11a14.65,14.65,0,0,1,5.12-11.57q5.13-4.47,13.07-4.47,8.41,0,13.54,4.77t5,12.78l-.08.24H109.16q0-4.48-2-6.81a7.17,7.17,0,0,0-5.74-2.32,6.15,6.15,0,0,0-5,2.12,7.91,7.91,0,0,0-1.79,5.3,6.35,6.35,0,0,0,2,4.84,27.22,27.22,0,0,0,6.95,4.17q8.39,2.79,12.69,7t4.3,11.43q0,7.43-5,11.68t-13.38,4.24a22,22,0,0,1-14-4.58q-5.84-4.59-5.64-14l.08-.23H93.48q0,5.43,2.2,7.82c1.47,1.58,3.63,2.38,6.49,2.38a6.94,6.94,0,0,0,5.42-2A7.51,7.51,0,0,0,109.4,49.7Z"/><path class="cls-2" d="M140.25,11.07V21.75h5.83v8h-5.83V51.61A7.14,7.14,0,0,0,141,55.5a2.51,2.51,0,0,0,2.18,1.15,6.77,6.77,0,0,0,1.31-.1,9.88,9.88,0,0,0,1.27-.34l.88,8.26a20.66,20.66,0,0,1-3,.82,19.07,19.07,0,0,1-3.27.25q-5.49,0-8.4-3.33t-2.92-10.52v-22h-5.2v-8h5.2V11.07Z"/><path class="cls-2" d="M172.36,31.44l-3.81-.12a4.85,4.85,0,0,0-3.11,1,6.29,6.29,0,0,0-1.93,2.78V64.71H152.35v-43H162.8l.43,6.08a13.11,13.11,0,0,1,3.16-5.06A6.26,6.26,0,0,1,170.82,21a6.75,6.75,0,0,1,1.39.14c.42.09.86.2,1.31.34Z"/><path class="cls-2" d="M193.33,65.54q-8.51,0-13.18-5.87t-4.69-15.13V42.91q0-9.72,4.51-15.84T192.65,21q7.59,0,11.63,5.2t4.05,14.13v6.12H186.66A15,15,0,0,0,188.82,54a6.52,6.52,0,0,0,5.82,2.82,17.4,17.4,0,0,0,5.57-.77A22.9,22.9,0,0,0,205,53.59l2.9,7a18.61,18.61,0,0,1-6.22,3.53A24,24,0,0,1,193.33,65.54Zm-.68-35.81a4.5,4.5,0,0,0-4.19,2.48A17.15,17.15,0,0,0,186.74,39h10.64V38a13.84,13.84,0,0,0-1.1-6.11A3.75,3.75,0,0,0,192.65,29.73Z"/><path class="cls-2" d="M235.53,64.71a17.63,17.63,0,0,1-1.05-3.1,25.61,25.61,0,0,1-.62-3.41,15.2,15.2,0,0,1-3.75,5.28,8.3,8.3,0,0,1-5.7,2.06q-5.88,0-9-3.43t-3.16-9.43q0-6.27,4.15-9.75t12.41-3.47h4.88V35.89a8.72,8.72,0,0,0-1.19-4.95,4,4,0,0,0-3.53-1.72,3.72,3.72,0,0,0-3.14,1.39,6.4,6.4,0,0,0-1.07,4l-10.8,0-.08-.24A11.43,11.43,0,0,1,218,24.85Q222.43,21,229.65,21q6.79,0,11,3.89T244.86,36V53.59a35.91,35.91,0,0,0,.43,5.72,34.44,34.44,0,0,0,1.36,5.4Zm-8.22-7.46a6.28,6.28,0,0,0,4-1.37,6.91,6.91,0,0,0,2.38-3.32V45.81h-4.88a4.68,4.68,0,0,0-4.11,1.83,7.78,7.78,0,0,0-1.29,4.6,5.79,5.79,0,0,0,1.07,3.62A3.46,3.46,0,0,0,227.31,57.25Z"/><path class="cls-2" d="M262.52,21.75l.44,5.52a13.16,13.16,0,0,1,4.39-4.66,11.18,11.18,0,0,1,6-1.65,9.74,9.74,0,0,1,5.84,1.77A10.93,10.93,0,0,1,283,28.11a13.92,13.92,0,0,1,4.39-5.26A10.55,10.55,0,0,1,293.65,21a9.87,9.87,0,0,1,8.54,4.53q3.13,4.52,3.13,13.85V64.71H294.13V39.34c0-3.62-.39-6.13-1.15-7.5a3.79,3.79,0,0,0-3.54-2.07,5,5,0,0,0-3.09,1,7.49,7.49,0,0,0-2.23,2.79c0,.67.06,1.23.1,1.71s.06,1,.06,1.43v28H273.13V39.34q0-5.36-1.16-7.46a3.79,3.79,0,0,0-3.57-2.11,5.32,5.32,0,0,0-2.92.82,7,7,0,0,0-2.2,2.28V64.71h-11.2v-43Z"/><path class="cls-2" d="M338.63,49.78h.24L349.71,6.91h14.65v57.8H353.24V28.3l-.24,0L342.56,64.71h-7.5L324.7,28.54l-.24,0V64.71H313.3V6.91h14.57Z"/><path class="cls-2" d="M393.78,64.71a18.5,18.5,0,0,1-1.06-3.1,27.31,27.31,0,0,1-.61-3.41,15.2,15.2,0,0,1-3.75,5.28,8.3,8.3,0,0,1-5.7,2.06q-5.88,0-9-3.43t-3.16-9.43q0-6.27,4.15-9.75T387,39.46h4.88V35.89a8.72,8.72,0,0,0-1.19-4.95,4,4,0,0,0-3.53-1.72,3.71,3.71,0,0,0-3.14,1.39,6.4,6.4,0,0,0-1.07,4l-10.8,0-.08-.24a11.43,11.43,0,0,1,4.17-9.45Q380.68,21,387.9,21q6.8,0,11,3.89T403.11,36V53.59a35.91,35.91,0,0,0,.43,5.72,33.32,33.32,0,0,0,1.35,5.4Zm-8.22-7.46a6.3,6.3,0,0,0,4-1.37,6.91,6.91,0,0,0,2.38-3.32V45.81H387a4.68,4.68,0,0,0-4.11,1.83,7.78,7.78,0,0,0-1.29,4.6,5.79,5.79,0,0,0,1.07,3.62A3.46,3.46,0,0,0,385.56,57.25Z"/><path class="cls-2" d="M444.39,44.3q0,9.62-3.79,15.43A12,12,0,0,1,430,65.54a10.34,10.34,0,0,1-4.84-1.09,10.61,10.61,0,0,1-3.65-3.19v20H410.33V21.75h10.24l.48,4.41a12,12,0,0,1,3.77-3.85A9.47,9.47,0,0,1,429.9,21a11.89,11.89,0,0,1,10.7,6.19q3.79,6.2,3.79,16.32Zm-11.19-.83a27.14,27.14,0,0,0-1.51-9.93q-1.51-3.76-4.68-3.77a5.62,5.62,0,0,0-3.3,1,6.64,6.64,0,0,0-2.22,2.72V53.71A5.75,5.75,0,0,0,423.71,56a6.63,6.63,0,0,0,3.34.79,4.88,4.88,0,0,0,4.7-3.32,23.43,23.43,0,0,0,1.45-9.19Z"/></g></g></svg>